# xmcd
#
# Track frame offsets:
#	150
#	16725
#	37502
#	52962
#	65432
#	81327
#	89655
#	106372
#	117700
#	135975
#	146535
#	161632
#	176890
#	188555
#	200437
#	210780
#
# Disc length: 3045 seconds
#
# Revision: 1
# Processed by: cddbd v1.4PL0 Copyright (c) Steve Scherf et al.
# Submitted via: audiograbber 1.80
#
DISCID=d20be310
DTITLE=Various Artist - Twisted Willie
DYEAR=1900
DGENRE=
TTITLE0=Time of the Preacher - Johnnu Cash
TTITLE1=Three Days- L7
TTITLE2=ShotGun Willie - Tenderloin
TTITLE3=Bloodu Mary Morning
TTITLE4=She's Not For You - Supersuckers
TTITLE5=Devil in a sleeping Bag - The Presidents of the USA
TTITLE6=I've Seen All The World I need to See
TTITLE7=Pick Up The Tempo - Best Kissers of the World
TTITLE8=Still is Sill Moving - Jello Biafra
TTITLE9=I Never Cared For You - Waylon Jennings
TTITLE10=Hello Walls - Reverand Horton Heat
TTITLE11=I Gotta Ge Drunk - Gas Huffer
TTITLE12=The Ghost - Steel Hole Bath Tub
TTITLE13=Sad Songs and Waltzes
TTITLE14=Home Hotel - X
TTITLE15=Angel Flying to Close to the Ground - Kelly Deal
EXTD=
EXTT0=
EXTT1=
EXTT2=
EXTT3=
EXTT4=
EXTT5=
EXTT6=
EXTT7=
EXTT8=
EXTT9=
EXTT10=
EXTT11=
EXTT12=
EXTT13=
EXTT14=
EXTT15=
PLAYORDER=
